<svg xmlns="http://www.w3.org/2000/svg" viewBox="0 0 12 12"><defs><style>.cls-1{fill:#092987;}</style></defs><g id="レイヤー_2" data-name="レイヤー 2"><g id="レイヤー_1-2" data-name="レイヤー 1"><path id="パス_825" data-name="パス 825" class="cls-1" d="M11.4,4.8a.6.6,0,0,1-.6-.6v-3h-3A.6.6,0,0,1,7.8,0H12V4.2A.6.6,0,0,1,11.4,4.8Z"/><path id="パス_826" data-name="パス 826" class="cls-1" d="M5.55,7.1a.65.65,0,0,1-.65-.65A.64.64,0,0,1,5.09,6L10.9.19a.65.65,0,0,1,.91,0,.66.66,0,0,1,0,.92h0L6,6.91A.64.64,0,0,1,5.55,7.1Z"/><path id="パス_827" data-name="パス 827" class="cls-1" d="M10.88,12H1.12A1.12,1.12,0,0,1,0,10.88H0V1.12A1.12,1.12,0,0,1,1.12,0H5.41a.27.27,0,0,1,.28.27h0V.93a.27.27,0,0,1-.27.27H1.2v9.6h9.6V6.59a.27.27,0,0,1,.27-.28h.65a.27.27,0,0,1,.28.28h0v4.29A1.12,1.12,0,0,1,10.88,12Z"/></g></g></svg>