<?xml version="1.0" encoding="UTF-8"?>
<svg id="_レイヤー_1" data-name="レイヤー_1" xmlns="http://www.w3.org/2000/svg" version="1.1" viewBox="0 0 12 12">
  <!-- Generator: Adobe Illustrator 29.0.0, SVG Export Plug-In . SVG Version: 2.1.0 Build 186)  -->
  <defs>
    <style>
      .st0 {
        fill: #fff;
      }
    </style>
  </defs>
  <g id="_レイヤー_2" data-name="レイヤー_2">
    <g id="_レイヤー_1-2" data-name="レイヤー_1-2">
      <path id="_パス_825" data-name="パス_825" class="st0" d="M11.4,4.8c-.3,0-.6-.3-.6-.6h0V1.2h-3c-.3,0-.6-.3-.6-.6,0-.3.3-.6.6-.6h0s4.2,0,4.2,0v4.2c0,.3-.3.6-.6.6h0Z"/>
      <path id="_パス_826" data-name="パス_826" class="st0" d="M5.6,7.1c-.4,0-.7-.3-.7-.6h0c0-.2,0-.3.2-.5L10.9.2c.3-.2.7-.2.9,0,.2.3.2.7,0,.9h0l-5.8,5.8c-.1.1-.3.2-.4.2Z"/>
      <path id="_パス_827" data-name="パス_827" class="st0" d="M10.9,12H1.1C.5,12,0,11.5,0,10.9h0V1.1C0,.5.5,0,1.1,0h4.3c.1,0,.3.1.3.3,0,0,0,0,0,0h0v.7c0,.1-.1.3-.3.3H1.2v9.6h9.6v-4.2c0-.1.1-.3.3-.3,0,0,0,0,0,0h.6c.1,0,.3.1.3.3,0,0,0,0,0,0h0v4.3c0,.6-.5,1.1-1.1,1.1Z"/>
    </g>
  </g>
</svg>