<svg version="1.1" xmlns="http://www.w3.org/2000/svg" xmlns:xlink="http://www.w3.org/1999/xlink" x="0px"
	 y="0px" viewBox="0 0 405.7 40.9" style="enable-background:new 0 0 405.7 40.9;" xml:space="preserve">
<style type="text/css">
	.st0{fill:#737373;}
</style>
<g>
	<g id="logo">
		<path class="st0" d="M42.4,0.2c-3.2-0.9-6.6,1-7.5,4.2L30.4,20l-11-17.2c-1.9-2.8-5.7-3.6-8.5-1.7c-1.2,0.8-2.1,2-2.5,3.4
			L0.1,33.1c-0.7,3.3,1.4,6.6,4.7,7.3c3,0.7,6-1,7.1-3.9l4.5-15.6l11.1,17.2c1.9,2.8,5.7,3.6,8.5,1.8c1.2-0.8,2.1-2,2.5-3.4
			l8.2-28.6C47.5,4.6,45.7,1.2,42.4,0.2z"/>
		<path class="st0" d="M92.5,0.2c-3.2-0.9-6.6,1-7.6,4.2l0,0L82,14.6H68.2l1.9-6.8c0.9-3.3-1-6.6-4.2-7.6c-3.3-0.9-6.6,1-7.6,4.2
			l0,0L50.1,33c-0.9,3.3,1,6.6,4.2,7.6c3.3,0.9,6.6-1,7.6-4.2l3-10.1h13.8l-1.9,6.8c-0.8,3.3,1.2,6.6,4.5,7.4c3.1,0.8,6.3-1,7.3-4.1
			l8.2-28.6C97.6,4.6,95.8,1.2,92.5,0.2L92.5,0.2z"/>
		<path class="st0" d="M144.2,2.4c-2-2.7-5.9-3.2-8.6-1.2l0,0l-17.3,13.1l1.9-6.5c0.9-3.3-1-6.6-4.2-7.6c-3.3-0.9-6.6,1-7.6,4.2
			L100.2,33c-0.9,3.3,1,6.6,4.2,7.6c3.3,0.9,6.6-1,7.6-4.2l3.5-12.3l0,0c0,0.1,0.1,0.1,0.2,0.2s0.1,0.2,0.2,0.3l13.3,14.3
			c1.1,1.3,2.8,2,4.5,2c3.4,0,6.1-2.7,6.1-6.1c0-1.6-0.6-3.1-1.6-4.2l-8.7-9.3L143,11C145.7,9,146.2,5.1,144.2,2.4z"/>
	</g>
</g>
<g>
	<g>
		<g>
			<g>
				<g>
					<path class="st0" d="M167.6,24.5c0.9,1.1,3.3,4.1,7.6,6.5c4.3-2.6,6.8-5.8,7.8-7.1h-21.2v-4h26.5v4c-0.9,1.6-3.3,5.8-8.3,9.3
						c6.6,2.2,12.4,2.7,15.4,2.9l-1.7,4.6c-8.8-0.9-14.8-3.1-18.4-4.8c-6.4,2.8-12.5,3.9-18.2,4.6l-1.9-4.4
						c9.1-0.9,13.5-2.2,15.5-2.9c-4-3-5.7-5.4-7-7.3L167.6,24.5z M162.2,12.6c-0.6-1.3-1.7-3.7-2.4-5.1l2-0.8c-1.8,0-3.4,0-4.6-0.1
						l-0.9-3.9c2.3,0.1,4.4,0.2,7.7,0.2c13.7,0,22.7-1.6,27.5-2.6l2.3,3.7c-1.9,0.4-3.8,0.8-6.5,1.1l3.5,1.1c-1.5,3.3-1.7,3.9-3,6.3
						h6.3v10.9h-4.5v-6.8h-29.2v6.8h-4.5V12.6H162.2z M173.5,12.6c-1.1-3.4-1.4-4.3-2.2-5.9c-1.5,0-4.1,0.1-7.1,0.1
						c0.9,1.9,1.7,3.9,2.5,5.8H173.5z M183.1,12.6c1.6-2.9,2.8-6.2,3-7.1c-2.6,0.3-3.3,0.4-10,0.9c0.9,2.4,1.4,3.9,1.9,6.2H183.1z"
						/>
					<path class="st0" d="M205.8,40.6h-4.3v-20c-0.9,1.3-1.3,1.8-2.2,2.8l-2.3-5c3.5-4,5.9-10.9,6.9-17.8l4.6,0.6c-0.9,5.3-1.8,8.1-2.8,10.8
						V40.6z M237.9,11.6h-30.1V7.6h30.1V11.6z M236.1,39.7h-26V26.1h26V39.7z M235.5,17.7h-24.6v-3.9h24.6V17.7z M235.5,23.9h-24.6
						v-3.9h24.6V23.9z M234.9,5.4h-23.6V1.4h23.6V5.4z M231.8,29.9h-17.3v6h17.3V29.9z"/>
					<path class="st0" d="M247.8,24.6c-2.6,5.1-5,7.8-6.5,9.3l-1.6-4.8c1.6-1.7,4.7-4.8,7.6-10.8h-7v-4h7.5V0.7h4.2v13.5h6.7v4h-6.5
						c1.7,3.4,3.3,5.2,5.4,7.4l-2.6,3.9c-1.4-2-2.3-3.2-3-4.8v15.8h-4.2V24.6z M243.8,3c0.9,2.5,1.7,6.2,1.9,8.5l-3.7,0.9
						c0-3.7-1-6.8-1.7-8.7L243.8,3z M259.6,3.5c-0.4,2-1.4,6-2.6,8.9l-3.5-1.1c0.5-1.2,1.4-3.6,2.1-8.6L259.6,3.5z M272,24.3V0.7
						h4.5v22.6l3.5-0.8l0.5,4.2l-4,0.9v12.9H272V28.6l-14.4,3.1l-0.7-4.2L272,24.3z M262,13.1c2.9,1.6,5.6,3.9,7.4,5.9l-2.8,3.3
						c-2.3-2.6-4.1-4.1-7.1-6L262,13.1z M263.1,2.5c3.6,2.1,5.7,4,7.6,6l-2.9,3.3c-1.8-2.1-4-4.2-7.3-6.3L263.1,2.5z"/>
					<path class="st0" d="M302.7,33.6c4.5-0.4,14-2,14-13.4c0-4.7-2-11.7-11.5-12.2c-1.3,18.9-7,26.8-12.8,26.8c-4.9,0-8.1-5.7-8.1-12.2
						c0-12,8.8-19.1,19.8-19.1c13.2,0,17.7,8.8,17.7,16.8c0,16.1-14.4,17.5-17.4,17.8L302.7,33.6z M288.8,22.8c0,2.5,0.9,7,3.7,7
						c1.6,0,2.8-1.4,3.8-3.3c2.9-5.3,3.7-11.8,4.2-18.2C292.9,9.7,288.8,15.8,288.8,22.8z"/>
					<path class="st0" d="M334.1,28.6c-0.9,4.1-2.6,7.7-5.5,10.7l-3.2-3c3.4-3.4,4.6-7.7,4.9-8.8L334.1,28.6z M361.3,11.9
						c-0.3,1.5-0.7,3.1-3.1,3.1h-7.7c-2,0-2.7-0.6-2.7-2.6V7.3h-4.9c-1.3,3.7-5.6,7.9-12.3,9.9l-2-3.8c7-1.3,9.3-4.8,10.1-6h-7.3
						v4.8H327V3.4h16.5V0.5h4.4v2.9h16.7v8.5H361.3z M343.5,24.7c-3.7,0.2-8.3,0.4-15.6,0.4l-0.4-4.1c2,0,5.5,0,7.1,0
						c3.2-4,4.3-5.7,5.4-7.6l4.1,1.6c-1.3,2.1-2.8,4-4.3,6c2.3,0,10.6-0.3,13.5-0.4c-1.7-1-2.5-1.4-3.8-2.1l3.6-2.8
						c3,1.4,5,2.7,11.2,7.4l-3.5,3.4c-0.8-0.7-1.4-1.4-2.9-2.6c-2.1,0.2-11.8,0.8-14.1,0.9c2.2,0.8,4.9,2.3,7.2,3.9l-2.8,3.4
						c-3.6-2.7-6.1-3.7-7.3-4.2L343.5,24.7z M336.1,28.2h4.3v6.6c0,0.7,0,0.9,0.8,0.9h8.2c2,0,2-0.1,2.6-4.4l4.2,1.4
						c-0.7,7.1-3.1,7.1-5.8,7.1h-10.7c-1.6,0-3.4-0.1-3.4-3.1V28.2z M360.3,7.3h-8.6v3.6c0,0.6,0.3,0.7,0.8,0.7h3.8
						c1.1,0,1.2-0.3,1.6-2.7l2.4,0.7V7.3z M359.3,27.2c2.3,2.4,5.1,6.7,6.6,9.7l-3.9,2.6c-1.1-2.8-3.6-7.2-6-10.2L359.3,27.2z"/>
					<path class="st0" d="M405.7,39.3h-34.8V3.6h34.8V39.3z M401,8.2h-25.5v26.5H401V8.2z"/>
				</g>
			</g>
		</g>
	</g>
</g>
</svg>
